<?xml version="1.0" standalone="no"?>
<!DOCTYPE svg PUBLIC "-//W3C//DTD SVG 20010904//EN"
 "http://www.w3.org/TR/2001/REC-SVG-20010904/DTD/svg10.dtd">
<svg version="1.0" xmlns="http://www.w3.org/2000/svg"
 width="612.000000pt" height="612.000000pt" viewBox="0 0 612.000000 612.000000"
 preserveAspectRatio="xMidYMid meet">
<metadata>
Created by potrace 1.14, written by Peter Selinger 2001-2017
</metadata>
<g transform="translate(0.000000,612.000000) scale(0.100000,-0.100000)"
fill="#000000" stroke="none">
<path d="M0 3060 l0 -3060 3060 0 3060 0 0 3060 0 3060 -3060 0 -3060 0 0
-3060z m5470 0 l0 -2410 -2410 0 -2410 0 0 2410 0 2410 2410 0 2410 0 0 -2410z"/>
<path d="M1978 5316 c-26 -40 -39 -94 -20 -82 5 3 27 32 51 65 40 58 41 61 19
61 -16 -1 -31 -14 -50 -44z"/>
<path d="M2016 5261 c-47 -68 -67 -105 -64 -122 3 -20 17 -5 85 91 46 63 83
118 83 123 0 4 -8 7 -19 7 -12 0 -41 -33 -85 -99z"/>
<path d="M2057 5209 c-65 -92 -107 -161 -107 -176 0 -13 4 -22 9 -19 10 6 241
333 241 341 0 3 -8 5 -18 5 -12 0 -55 -52 -125 -151z"/>
<path d="M2099 5155 c-127 -180 -169 -256 -142 -255 7 1 313 430 321 451 2 5
-5 9 -15 9 -14 0 -62 -61 -164 -205z"/>
<path d="M2146 5110 l-176 -249 175 -248 c113 -159 183 -249 195 -251 11 -2
20 -1 20 3 0 3 -74 111 -165 239 -91 129 -167 241 -171 249 -5 15 41 84 263
394 40 56 73 105 73 108 0 3 -9 5 -19 5 -14 0 -70 -72 -195 -250z"/>
<path d="M2377 5328 c-88 -119 -320 -455 -321 -465 -1 -7 77 -122 172 -258
130 -184 178 -245 194 -245 20 0 20 1 2 28 -32 49 -306 436 -321 453 -13 15 4
43 155 257 94 133 173 246 177 251 3 7 -2 11 -14 11 -11 0 -31 -15 -44 -32z"/>
<path d="M2305 5117 c-93 -133 -170 -249 -169 -257 1 -19 332 -490 350 -497 7
-3 18 -3 24 -1 5 1 -69 115 -165 251 l-176 248 167 237 c91 130 169 242 171
249 3 8 -2 13 -13 13 -13 0 -72 -76 -189 -243z"/>
<path d="M2385 5118 c-93 -133 -171 -247 -173 -253 -1 -5 75 -120 170 -255
132 -186 179 -246 197 -248 27 -4 40 -24 -186 296 l-144 203 142 202 c78 111
157 223 176 250 34 46 34 47 11 47 -19 -1 -55 -46 -193 -242z"/>
<path d="M2462 5114 c-112 -159 -171 -251 -167 -261 3 -9 81 -123 173 -254
114 -163 173 -238 186 -239 12 0 16 5 13 14 -3 8 -81 121 -172 250 -106 149
-164 240 -159 248 4 7 81 117 171 244 90 127 163 234 163 238 0 3 -8 6 -18 6
-11 0 -76 -84 -190 -246z"/>
<path d="M2538 5113 c-95 -135 -172 -250 -170 -255 1 -6 80 -120 174 -254 118
-169 177 -244 190 -244 10 0 18 3 18 6 0 3 -74 111 -165 240 -91 128 -168 240
-171 248 -3 8 67 116 165 256 94 133 171 243 171 246 0 2 -9 4 -19 4 -13 0
-70 -72 -193 -247z"/>
<path d="M2697 5228 c-51 -73 -131 -185 -176 -249 l-82 -117 176 -251 c127
-181 182 -251 196 -251 10 0 19 2 19 4 0 3 -76 113 -170 246 -93 132 -170 246
-170 251 0 6 73 115 163 242 197 280 183 257 158 257 -14 0 -47 -38 -114 -132z"/>
<path d="M2812 5278 c-32 -46 -111 -158 -176 -250 l-117 -167 177 -251 c123
-174 182 -250 195 -250 11 0 19 2 19 4 0 5 -198 288 -291 418 -27 37 -49 73
-49 79 0 6 32 57 72 113 295 417 275 386 249 386 -13 0 -39 -27 -79 -82z"/>
<path d="M3165 5350 c3 -5 36 -31 73 -57 37 -26 135 -95 217 -153 547 -387
694 -490 699 -490 3 0 6 19 6 43 l-1 42 -291 205 c-673 474 -590 420 -653 420
-34 0 -54 -4 -50 -10z"/>
<path d="M3450 5339 c14 -11 90 -67 170 -123 80 -56 228 -160 330 -232 102
-72 191 -134 198 -138 9 -5 12 4 12 36 l0 44 -157 111 c-87 61 -225 159 -307
217 l-150 106 -60 0 -61 -1 25 -20z"/>
<path d="M3706 5351 c21 -19 425 -302 439 -307 12 -5 15 2 15 34 0 38 -3 42
-82 99 -249 180 -253 183 -320 183 -36 0 -58 -4 -52 -9z"/>
<path d="M4056 5295 c49 -35 92 -65 97 -65 4 0 7 19 7 43 0 37 -4 45 -35 65
-26 17 -49 22 -96 22 l-62 0 89 -65z"/>
<path d="M4380 5345 c0 -9 5 -15 11 -13 6 2 11 8 11 13 0 5 -5 11 -11 13 -6 2
-11 -4 -11 -13z"/>
<path d="M4487 5354 c-8 -8 1 -24 14 -24 5 0 9 7 9 15 0 15 -12 20 -23 9z"/>
<path d="M4590 5346 c0 -9 7 -16 16 -16 17 0 14 22 -4 28 -7 2 -12 -3 -12 -12z"/>
<path d="M4700 5345 c0 -8 5 -15 10 -15 6 0 10 7 10 15 0 8 -4 15 -10 15 -5 0
-10 -7 -10 -15z"/>
<path d="M4800 5345 c0 -8 7 -15 15 -15 8 0 15 7 15 15 0 8 -7 15 -15 15 -8 0
-15 -7 -15 -15z"/>
<path d="M4910 5345 c0 -8 5 -15 10 -15 6 0 10 7 10 15 0 8 -4 15 -10 15 -5 0
-10 -7 -10 -15z"/>
<path d="M5010 5345 c0 -8 7 -15 15 -15 8 0 15 7 15 15 0 8 -7 15 -15 15 -8 0
-15 -7 -15 -15z"/>
<path d="M5120 5345 c0 -8 5 -15 10 -15 6 0 10 7 10 15 0 8 -4 15 -10 15 -5 0
-10 -7 -10 -15z"/>
<path d="M5220 5345 c0 -8 7 -15 15 -15 8 0 15 7 15 15 0 8 -7 15 -15 15 -8 0
-15 -7 -15 -15z"/>
<path d="M5330 5345 c0 -8 5 -15 10 -15 6 0 10 7 10 15 0 8 -4 15 -10 15 -5 0
-10 -7 -10 -15z"/>
<path d="M1007 5112 c-130 -130 -237 -240 -237 -245 0 -4 108 -7 240 -7 l240
0 0 245 c0 135 -1 245 -3 245 -1 0 -109 -107 -240 -238z"/>
<path d="M1500 5105 l-245 -245 248 0 247 0 0 245 c0 135 -1 245 -3 245 -1 0
-112 -110 -247 -245z"/>
<path d="M2780 5121 c-91 -129 -169 -241 -173 -248 -6 -9 45 -90 159 -251 91
-130 171 -241 175 -247 5 -5 9 3 9 20 -1 22 -41 88 -155 248 l-154 219 54 76
c240 338 256 363 253 390 -3 23 -28 -8 -168 -207z"/>
<path d="M2815 5062 c-71 -102 -131 -190 -133 -197 -2 -6 57 -97 130 -200 115
-163 133 -185 136 -162 3 21 -22 63 -113 192 -66 94 -113 170 -109 176 4 7 56
81 116 166 84 120 108 161 106 182 -3 23 -22 0 -133 -157z"/>
<path d="M4380 5235 c0 -9 5 -15 11 -13 6 2 11 8 11 13 0 5 -5 11 -11 13 -6 2
-11 -4 -11 -13z"/>
<path d="M4485 5241 c-6 -11 9 -23 19 -14 9 9 7 23 -3 23 -6 0 -12 -4 -16 -9z"/>
<path d="M4592 5239 c2 -6 8 -10 13 -10 5 0 11 4 13 10 2 6 -4 11 -13 11 -9 0
-15 -5 -13 -11z"/>
<path d="M4697 5244 c-8 -8 1 -24 14 -24 5 0 9 7 9 15 0 15 -12 20 -23 9z"/>
<path d="M4802 5239 c2 -6 8 -10 13 -10 5 0 11 4 13 10 2 6 -4 11 -13 11 -9 0
-15 -5 -13 -11z"/>
<path d="M4910 5235 c0 -8 5 -15 10 -15 6 0 10 7 10 15 0 8 -4 15 -10 15 -5 0
-10 -7 -10 -15z"/>
<path d="M5012 5239 c2 -6 8 -10 13 -10 5 0 11 4 13 10 2 6 -4 11 -13 11 -9 0
-15 -5 -13 -11z"/>
<path d="M5120 5235 c0 -8 5 -15 10 -15 6 0 10 7 10 15 0 8 -4 15 -10 15 -5 0
-10 -7 -10 -15z"/>
<path d="M5222 5239 c2 -6 8 -10 13 -10 5 0 11 4 13 10 2 6 -4 11 -13 11 -9 0
-15 -5 -13 -11z"/>
<path d="M5330 5235 c0 -8 5 -15 10 -15 6 0 10 7 10 15 0 8 -4 15 -10 15 -5 0
-10 -7 -10 -15z"/>
<path d="M3160 5198 l0 -43 138 -97 c75 -53 218 -154 317 -224 99 -70 239
-168 310 -219 72 -50 154 -108 183 -129 l52 -38 0 46 0 45 -97 69 c-624 442
-894 632 -898 632 -3 0 -5 -19 -5 -42z"/>
<path d="M4380 5130 c0 -5 7 -10 15 -10 8 0 15 5 15 10 0 6 -7 10 -15 10 -8 0
-15 -4 -15 -10z"/>
<path d="M4480 5130 c0 -5 7 -10 15 -10 8 0 15 5 15 10 0 6 -7 10 -15 10 -8 0
-15 -4 -15 -10z"/>
<path d="M4590 5130 c0 -5 7 -10 15 -10 8 0 15 5 15 10 0 6 -7 10 -15 10 -8 0
-15 -4 -15 -10z"/>
<path d="M4700 5130 c0 -5 5 -10 10 -10 6 0 10 5 10 10 0 6 -4 10 -10 10 -5 0
-10 -4 -10 -10z"/>
<path d="M4800 5130 c0 -5 7 -10 15 -10 8 0 15 5 15 10 0 6 -7 10 -15 10 -8 0
-15 -4 -15 -10z"/>
<path d="M4910 5130 c0 -5 5 -10 10 -10 6 0 10 5 10 10 0 6 -4 10 -10 10 -5 0
-10 -4 -10 -10z"/>
<path d="M5010 5130 c0 -5 7 -10 15 -10 8 0 15 5 15 10 0 6 -7 10 -15 10 -8 0
-15 -4 -15 -10z"/>
<path d="M5120 5130 c0 -5 5 -10 10 -10 6 0 10 5 10 10 0 6 -4 10 -10 10 -5 0
-10 -4 -10 -10z"/>
<path d="M5220 5130 c0 -5 7 -10 15 -10 8 0 15 5 15 10 0 6 -7 10 -15 10 -8 0
-15 -4 -15 -10z"/>
<path d="M5330 5130 c0 -5 5 -10 10 -10 6 0 10 5 10 10 0 6 -4 10 -10 10 -5 0
-10 -4 -10 -10z"/>
<path d="M2853 5003 c-51 -72 -93 -136 -93 -142 0 -5 42 -69 93 -142 80 -116
92 -129 95 -105 3 20 -14 52 -69 129 -39 56 -73 106 -75 112 -3 6 30 59 71
118 57 81 75 115 73 135 -3 23 -15 10 -95 -105z"/>
<path d="M3160 5006 l0 -45 133 -93 c72 -51 264 -186 426 -301 l294 -208 61 3
61 3 -135 95 c-74 52 -250 175 -390 275 -140 99 -299 211 -352 248 l-98 68 0
-45z"/>
<path d="M4380 5026 c0 -9 7 -16 16 -16 17 0 14 22 -4 28 -7 2 -12 -3 -12 -12z"/>
<path d="M4487 5034 c-8 -8 1 -24 14 -24 5 0 9 7 9 15 0 15 -12 20 -23 9z"/>
<path d="M4596 5033 c-11 -11 -6 -23 9 -23 8 0 15 4 15 9 0 13 -16 22 -24 14z"/>
<path d="M4700 5025 c0 -8 5 -15 10 -15 6 0 10 7 10 15 0 8 -4 15 -10 15 -5 0
-10 -7 -10 -15z"/>
<path d="M4806 5033 c-11 -11 -6 -23 9 -23 8 0 15 4 15 9 0 13 -16 22 -24 14z"/>
<path d="M4910 5025 c0 -8 5 -15 10 -15 6 0 10 7 10 15 0 8 -4 15 -10 15 -5 0
-10 -7 -10 -15z"/>
<path d="M5016 5033 c-11 -11 -6 -23 9 -23 8 0 15 4 15 9 0 13 -16 22 -24 14z"/>
<path d="M5120 5025 c0 -8 5 -15 10 -15 6 0 10 7 10 15 0 8 -4 15 -10 15 -5 0
-10 -7 -10 -15z"/>
<path d="M5226 5033 c-11 -11 -6 -23 9 -23 8 0 15 4 15 9 0 13 -16 22 -24 14z"/>
<path d="M5330 5025 c0 -9 5 -15 11 -13 6 2 11 8 11 13 0 5 -5 11 -11 13 -6 2
-11 -4 -11 -13z"/>
<path d="M2893 4947 c-29 -42 -53 -81 -53 -89 1 -7 25 -47 55 -88 51 -68 55
-72 55 -45 0 18 -15 51 -36 83 l-37 53 37 54 c26 36 36 62 34 80 -3 25 -8 21
-55 -48z"/>
<path d="M4380 4915 c0 -9 5 -15 11 -13 6 2 11 8 11 13 0 5 -5 11 -11 13 -6 2
-11 -4 -11 -13z"/>
<path d="M4487 4924 c-8 -8 1 -24 14 -24 5 0 9 7 9 15 0 15 -12 20 -23 9z"/>
<path d="M4590 4915 c0 -9 5 -15 11 -13 6 2 11 8 11 13 0 5 -5 11 -11 13 -6 2
-11 -4 -11 -13z"/>
<path d="M4697 4924 c-8 -8 1 -24 14 -24 5 0 9 7 9 15 0 15 -12 20 -23 9z"/>
<path d="M4800 4915 c0 -8 7 -15 15 -15 8 0 15 7 15 15 0 8 -7 15 -15 15 -8 0
-15 -7 -15 -15z"/>
<path d="M4910 4915 c0 -8 5 -15 10 -15 6 0 10 7 10 15 0 8 -4 15 -10 15 -5 0
-10 -7 -10 -15z"/>
<path d="M5010 4915 c0 -8 7 -15 15 -15 8 0 15 7 15 15 0 8 -7 15 -15 15 -8 0
-15 -7 -15 -15z"/>
<path d="M5120 4915 c0 -8 5 -15 10 -15 6 0 10 7 10 15 0 8 -4 15 -10 15 -5 0
-10 -7 -10 -15z"/>
<path d="M5220 4915 c0 -8 7 -15 15 -15 8 0 15 7 15 15 0 8 -7 15 -15 15 -8 0
-15 -7 -15 -15z"/>
<path d="M5330 4915 c0 -8 5 -15 10 -15 6 0 10 7 10 15 0 8 -4 15 -10 15 -5 0
-10 -7 -10 -15z"/>
<path d="M2927 4887 c-14 -22 -14 -26 4 -53 l19 -29 0 53 c0 28 -2 52 -4 52
-2 0 -11 -11 -19 -23z"/>
<path d="M1007 4612 c-130 -130 -237 -240 -237 -245 0 -4 108 -7 240 -7 l240
0 0 245 c0 135 -1 245 -3 245 -1 0 -109 -107 -240 -238z"/>
<path d="M1507 4612 c-130 -130 -237 -240 -237 -245 0 -4 108 -7 240 -7 l240
0 0 245 c0 135 -1 245 -3 245 -1 0 -109 -107 -240 -238z"/>
<path d="M3160 4809 l1 -44 147 -102 c81 -56 211 -147 290 -202 140 -99 143
-101 199 -101 56 0 57 0 38 19 -24 22 -645 462 -662 468 -9 4 -13 -7 -13 -38z"/>
<path d="M1950 4807 c0 -36 282 -441 311 -445 10 -2 19 0 19 4 0 8 -295 431
-316 454 -12 12 -14 11 -14 -13z"/>
<path d="M4380 4804 c0 -9 5 -14 12 -12 18 6 21 28 4 28 -9 0 -16 -7 -16 -16z"/>
<path d="M4487 4814 c-8 -8 1 -24 14 -24 5 0 9 7 9 15 0 15 -12 20 -23 9z"/>
<path d="M4592 4809 c2 -6 8 -10 13 -10 5 0 11 4 13 10 2 6 -4 11 -13 11 -9 0
-15 -5 -13 -11z"/>
<path d="M4700 4805 c0 -8 5 -15 10 -15 6 0 10 7 10 15 0 8 -4 15 -10 15 -5 0
-10 -7 -10 -15z"/>
<path d="M4800 4804 c0 -9 5 -14 12 -12 18 6 21 28 4 28 -9 0 -16 -7 -16 -16z"/>
<path d="M4910 4805 c0 -8 5 -15 10 -15 6 0 10 7 10 15 0 8 -4 15 -10 15 -5 0
-10 -7 -10 -15z"/>
<path d="M5012 4809 c2 -6 8 -10 13 -10 5 0 11 4 13 10 2 6 -4 11 -13 11 -9 0
-15 -5 -13 -11z"/>
<path d="M5120 4805 c0 -8 5 -15 10 -15 6 0 10 7 10 15 0 8 -4 15 -10 15 -5 0
-10 -7 -10 -15z"/>
<path d="M5222 4809 c2 -6 8 -10 13 -10 5 0 11 4 13 10 2 6 -4 11 -13 11 -9 0
-15 -5 -13 -11z"/>
<path d="M5330 4805 c0 -8 5 -15 10 -15 6 0 10 7 10 15 0 8 -4 15 -10 15 -5 0
-10 -7 -10 -15z"/>
<path d="M1950 4688 c0 -33 206 -322 232 -326 11 -2 19 1 17 6 -8 21 -234 341
-241 342 -5 0 -8 -10 -8 -22z"/>
<path d="M4380 4700 c0 -5 7 -10 15 -10 8 0 15 5 15 10 0 6 -7 10 -15 10 -8 0
-15 -4 -15 -10z"/>
<path d="M4480 4700 c0 -5 7 -10 15 -10 8 0 15 5 15 10 0 6 -7 10 -15 10 -8 0
-15 -4 -15 -10z"/>
<path d="M4590 4700 c0 -5 7 -10 15 -10 8 0 15 5 15 10 0 6 -7 10 -15 10 -8 0
-15 -4 -15 -10z"/>
<path d="M4700 4700 c0 -5 5 -10 10 -10 6 0 10 5 10 10 0 6 -4 10 -10 10 -5 0
-10 -4 -10 -10z"/>
<path d="M4800 4700 c0 -5 7 -10 15 -10 8 0 15 5 15 10 0 6 -7 10 -15 10 -8 0
-15 -4 -15 -10z"/>
<path d="M4910 4700 c0 -5 5 -10 10 -10 6 0 10 5 10 10 0 6 -4 10 -10 10 -5 0
-10 -4 -10 -10z"/>
<path d="M5010 4700 c0 -5 7 -10 15 -10 8 0 15 5 15 10 0 6 -7 10 -15 10 -8 0
-15 -4 -15 -10z"/>
<path d="M5120 4700 c0 -5 5 -10 10 -10 6 0 10 5 10 10 0 6 -4 10 -10 10 -5 0
-10 -4 -10 -10z"/>
<path d="M5220 4700 c0 -5 7 -10 15 -10 8 0 15 5 15 10 0 6 -7 10 -15 10 -8 0
-15 -4 -15 -10z"/>
<path d="M5330 4700 c0 -5 5 -10 10 -10 6 0 10 5 10 10 0 6 -4 10 -10 10 -5 0
-10 -4 -10 -10z"/>
<path d="M3160 4618 l1 -43 152 -107 152 -108 60 0 c74 0 82 -9 -150 155 -232
164 -215 155 -215 103z"/>
<path d="M4385 4599 c-10 -15 3 -25 16 -12 7 7 7 13 1 17 -6 3 -14 1 -17 -5z"/>
<path d="M4487 4604 c-8 -8 1 -24 14 -24 5 0 9 7 9 15 0 15 -12 20 -23 9z"/>
<path d="M4590 4596 c0 -9 7 -16 16 -16 17 0 14 22 -4 28 -7 2 -12 -3 -12 -12z"/>
<path d="M4697 4604 c-8 -8 1 -24 14 -24 5 0 9 7 9 15 0 15 -12 20 -23 9z"/>
<path d="M4806 4603 c-11 -11 -6 -23 9 -23 8 0 15 4 15 9 0 13 -16 22 -24 14z"/>
<path d="M4910 4595 c0 -8 5 -15 10 -15 6 0 10 7 10 15 0 8 -4 15 -10 15 -5 0
-10 -7 -10 -15z"/>
<path d="M5016 4603 c-11 -11 -6 -23 9 -23 8 0 15 4 15 9 0 13 -16 22 -24 14z"/>
<path d="M5120 4596 c0 -9 5 -16 10 -16 6 0 10 4 10 9 0 6 -4 13 -10 16 -5 3
-10 -1 -10 -9z"/>
<path d="M5226 4603 c-11 -11 -6 -23 9 -23 8 0 15 4 15 9 0 13 -16 22 -24 14z"/>
<path d="M5330 4595 c0 -8 5 -15 10 -15 6 0 10 7 10 15 0 8 -4 15 -10 15 -5 0
-10 -7 -10 -15z"/>
<path d="M1950 4578 c0 -13 31 -67 68 -120 52 -75 72 -97 90 -98 22 0 20 5
-28 73 -29 39 -66 93 -83 119 -35 53 -47 59 -47 26z"/>
<path d="M4380 4485 c0 -9 5 -15 11 -13 6 2 11 8 11 13 0 5 -5 11 -11 13 -6 2
-11 -4 -11 -13z"/>
<path d="M4487 4494 c-8 -8 1 -24 14 -24 5 0 9 7 9 15 0 15 -12 20 -23 9z"/>
<path d="M4590 4485 c0 -9 5 -15 11 -13 6 2 11 8 11 13 0 5 -5 11 -11 13 -6 2
-11 -4 -11 -13z"/>
<path d="M4697 4494 c-8 -8 1 -24 14 -24 5 0 9 7 9 15 0 15 -12 20 -23 9z"/>
<path d="M4800 4485 c0 -8 7 -15 15 -15 8 0 15 7 15 15 0 8 -7 15 -15 15 -8 0
-15 -7 -15 -15z"/>
<path d="M4910 4485 c0 -8 5 -15 10 -15 6 0 10 7 10 15 0 8 -4 15 -10 15 -5 0
-10 -7 -10 -15z"/>
<path d="M5010 4485 c0 -8 7 -15 15 -15 8 0 15 7 15 15 0 8 -7 15 -15 15 -8 0
-15 -7 -15 -15z"/>
<path d="M5120 4485 c0 -8 5 -15 10 -15 6 0 10 7 10 15 0 8 -4 15 -10 15 -5 0
-10 -7 -10 -15z"/>
<path d="M5220 4485 c0 -8 7 -15 15 -15 8 0 15 7 15 15 0 8 -7 15 -15 15 -8 0
-15 -7 -15 -15z"/>
<path d="M5330 4485 c0 -9 5 -15 11 -13 6 2 11 8 11 13 0 5 -5 11 -11 13 -6 2
-11 -4 -11 -13z"/>
<path d="M1950 4469 c0 -32 58 -109 81 -109 23 0 27 -9 -41 93 -28 42 -40 46
-40 16z"/>
<path d="M3160 4420 c0 -29 5 -42 19 -50 23 -12 121 -14 121 -2 0 8 -121 92
-133 92 -4 0 -7 -18 -7 -40z"/>
<path d="M4380 4374 c0 -9 5 -14 12 -12 18 6 21 28 4 28 -9 0 -16 -7 -16 -16z"/>
<path d="M4487 4384 c-8 -8 1 -24 14 -24 5 0 9 7 9 15 0 15 -12 20 -23 9z"/>
<path d="M4592 4379 c2 -6 8 -10 13 -10 5 0 11 4 13 10 2 6 -4 11 -13 11 -9 0
-15 -5 -13 -11z"/>
<path d="M4697 4384 c-8 -8 1 -24 14 -24 5 0 9 7 9 15 0 15 -12 20 -23 9z"/>
<path d="M4802 4379 c2 -6 8 -10 13 -10 5 0 11 4 13 10 2 6 -4 11 -13 11 -9 0
-15 -5 -13 -11z"/>
<path d="M4910 4375 c0 -8 5 -15 10 -15 6 0 10 7 10 15 0 8 -4 15 -10 15 -5 0
-10 -7 -10 -15z"/>
<path d="M5012 4379 c2 -6 8 -10 13 -10 5 0 11 4 13 10 2 6 -4 11 -13 11 -9 0
-15 -5 -13 -11z"/>
<path d="M5120 4375 c0 -8 5 -15 10 -15 6 0 10 7 10 15 0 8 -4 15 -10 15 -5 0
-10 -7 -10 -15z"/>
<path d="M5222 4379 c2 -6 8 -10 13 -10 5 0 11 4 13 10 2 6 -4 11 -13 11 -9 0
-15 -5 -13 -11z"/>
<path d="M5330 4375 c0 -8 5 -15 10 -15 6 0 10 7 10 15 0 8 -4 15 -10 15 -5 0
-10 -7 -10 -15z"/>
<path d="M772 4125 c0 -26 3 -34 11 -26 7 7 14 7 24 -1 18 -14 29 -3 15 15 -9
10 -9 16 0 25 16 16 2 28 -15 14 -10 -8 -17 -8 -24 -1 -8 8 -11 0 -11 -26z"/>
<path d="M924 4125 c0 -27 3 -32 13 -23 9 7 17 7 27 -1 12 -10 14 -6 13 23 -1
26 -4 33 -13 25 -8 -7 -14 -7 -19 1 -12 20 -21 10 -21 -25z"/>
<path d="M1070 4151 c0 -6 5 -13 10 -16 8 -5 7 -11 -1 -21 -15 -19 -4 -30 15
-15 10 8 16 9 21 1 3 -6 11 -8 16 -4 7 4 6 10 0 18 -7 9 -7 16 1 24 16 16 2
28 -16 13 -10 -8 -16 -9 -21 -1 -8 13 -25 13 -25 1z"/>
<path d="M1226 4152 c-3 -6 -2 -14 4 -17 8 -5 8 -11 0 -20 -7 -8 -7 -15 -1
-19 5 -4 13 -2 16 4 5 8 11 7 21 -1 18 -15 31 -4 16 14 -9 10 -9 16 0 25 16
16 2 28 -15 14 -10 -8 -17 -8 -24 -1 -7 7 -13 7 -17 1z"/>
<path d="M1384 4125 c0 -27 3 -32 13 -23 9 7 17 7 26 0 10 -9 13 -4 13 23 0
29 -2 32 -15 22 -11 -9 -15 -9 -18 1 -9 24 -19 12 -19 -23z"/>
<path d="M1530 4151 c0 -6 5 -13 10 -16 8 -5 7 -11 -1 -21 -15 -19 -4 -30 15
-15 10 8 16 9 21 1 3 -6 11 -8 16 -4 7 4 6 10 0 18 -7 9 -7 16 1 24 16 16 2
28 -16 13 -10 -8 -16 -9 -21 -1 -8 13 -25 13 -25 1z"/>
<path d="M1686 4151 c-3 -5 0 -11 6 -14 10 -3 10 -7 1 -19 -16 -18 -5 -32 14
-17 9 8 17 8 26 1 10 -9 13 -4 13 23 0 35 -9 45 -21 25 -5 -8 -11 -8 -20 0 -8
7 -15 7 -19 1z"/>
<path d="M2288 4136 c-179 -63 -328 -255 -328 -421 l0 -45 223 -1 c214 -1 220
-1 163 -15 -207 -50 -368 -227 -384 -421 l-5 -63 497 0 496 0 0 28 c0 47 -29
142 -63 206 -62 118 -186 213 -327 250 -53 14 -46 15 168 15 l222 1 0 28 c0
52 -41 174 -77 230 -66 105 -168 182 -282 216 -84 25 -221 21 -303 -8z"/>
<path d="M3160 3665 l0 -495 500 0 500 0 0 495 0 495 -500 0 -500 0 0 -495z"/>
<path d="M4750 4149 c-129 -35 -234 -111 -304 -222 -46 -72 -67 -139 -73 -232
-10 -141 34 -258 137 -368 133 -142 330 -193 511 -132 209 70 339 250 339 470
0 220 -130 400 -339 470 -78 27 -200 33 -271 14z"/>
<path d="M767 4003 c-4 -3 -2 -12 4 -20 9 -9 8 -17 0 -27 -10 -12 -6 -14 22
-13 30 1 33 3 33 33 0 26 -3 31 -13 22 -9 -7 -17 -7 -26 1 -8 6 -17 8 -20 4z"/>
<path d="M923 3977 c1 -29 4 -34 27 -34 23 0 26 5 27 34 1 28 -1 32 -13 22
-11 -9 -17 -9 -28 0 -12 10 -14 6 -13 -22z"/>
<path d="M1116 4001 c-3 -5 -16 -7 -29 -3 -19 5 -20 3 -9 -10 9 -11 10 -18 2
-23 -20 -12 -10 -21 25 -21 35 0 45 9 25 21 -8 5 -8 11 0 20 7 8 7 15 1 19 -5
4 -12 2 -15 -3z"/>
<path d="M1227 4003 c-4 -3 -2 -12 4 -20 8 -9 8 -17 1 -26 -9 -10 -4 -13 21
-13 31 0 33 2 33 33 0 25 -3 30 -13 21 -9 -7 -17 -7 -26 1 -8 6 -17 8 -20 4z"/>
<path d="M1383 3977 c1 -29 4 -34 27 -34 23 0 26 5 27 34 1 28 -1 32 -13 22
-11 -9 -17 -9 -28 0 -12 10 -14 6 -13 -22z"/>
<path d="M1576 4001 c-3 -5 -16 -7 -29 -3 -19 5 -20 3 -9 -10 9 -11 10 -18 2
-23 -20 -12 -10 -21 25 -21 34 0 47 10 23 19 -10 3 -10 7 0 19 8 10 9 19 3 22
-5 4 -12 2 -15 -3z"/>
<path d="M1687 4003 c-4 -3 -2 -12 4 -20 8 -9 8 -17 1 -26 -9 -10 -4 -13 21
-13 31 0 33 2 33 33 0 25 -3 30 -13 21 -9 -7 -17 -7 -26 1 -8 6 -17 8 -20 4z"/>
<path d="M775 3832 c3 -8 1 -20 -5 -27 -8 -10 -3 -13 23 -12 29 1 34 4 34 27
0 23 -5 27 -29 27 -21 0 -27 -4 -23 -15z"/>
<path d="M923 3820 c0 -22 5 -27 27 -27 22 0 27 5 27 27 0 22 -5 27 -27 27
-22 0 -27 -5 -27 -27z"/>
<path d="M1070 3839 c0 -4 5 -11 10 -14 8 -5 8 -11 1 -19 -8 -9 -1 -12 25 -13
30 -1 33 1 22 15 -10 12 -10 16 0 19 24 9 11 19 -23 19 -19 0 -35 -3 -35 -7z"/>
<path d="M1231 3834 c9 -11 9 -17 0 -28 -8 -9 -8 -16 -2 -20 5 -4 13 -2 16 4
4 6 14 8 23 6 13 -4 17 1 18 22 1 25 -3 28 -33 29 -28 1 -32 -1 -22 -13z"/>
<path d="M1383 3820 c0 -23 5 -26 34 -27 26 -1 31 2 23 12 -6 7 -8 19 -5 27 4
11 -2 15 -23 15 -24 0 -29 -4 -29 -27z"/>
<path d="M1530 3839 c0 -4 6 -9 13 -12 9 -3 9 -7 0 -18 -10 -13 -7 -15 23 -16
29 -1 33 1 23 13 -8 10 -8 18 -1 27 9 10 4 13 -23 13 -19 0 -35 -3 -35 -7z"/>
<path d="M1692 3833 c7 -9 7 -17 -1 -27 -10 -12 -6 -14 22 -13 29 1 34 4 34
27 0 23 -4 26 -33 26 -26 0 -31 -3 -22 -13z"/>
<path d="M767 3693 c-4 -3 -2 -12 4 -19 7 -8 7 -14 -1 -19 -6 -3 -8 -11 -4
-16 4 -6 11 -6 19 1 9 8 15 8 20 0 12 -20 21 -10 21 25 0 35 -9 45 -21 25 -5
-8 -11 -8 -19 -1 -7 6 -16 8 -19 4z"/>
<path d="M924 3665 c0 -27 3 -32 13 -23 9 7 17 7 27 -1 12 -10 14 -6 13 24 -1
22 -4 32 -11 25 -5 -5 -16 -5 -26 0 -13 7 -16 3 -16 -25z"/>
<path d="M1070 3691 c0 -6 5 -13 10 -16 8 -5 7 -11 -1 -21 -15 -19 -4 -30 15
-15 10 8 16 9 21 1 3 -6 11 -8 16 -4 7 4 6 10 0 18 -7 9 -7 16 1 24 16 16 2
28 -16 13 -10 -8 -16 -9 -21 -1 -8 13 -25 13 -25 1z"/>
<path d="M1227 3693 c-4 -3 -2 -12 4 -19 7 -8 7 -14 -1 -19 -6 -3 -8 -11 -4
-16 4 -6 11 -6 19 1 9 8 15 8 20 0 12 -20 21 -10 21 25 0 35 -9 45 -21 25 -5
-8 -11 -8 -19 -1 -7 6 -16 8 -19 4z"/>
<path d="M1384 3665 c0 -28 3 -32 16 -25 10 5 21 5 26 0 7 -7 10 3 10 25 0 22
-3 32 -10 25 -5 -5 -16 -5 -26 0 -13 7 -16 3 -16 -25z"/>
<path d="M1530 3691 c0 -6 5 -13 10 -16 8 -5 7 -11 -1 -21 -15 -18 -3 -32 13
-16 9 9 15 9 25 0 18 -14 29 -3 15 15 -9 10 -9 16 0 25 16 16 2 28 -16 13 -10
-8 -16 -9 -21 -1 -8 13 -25 13 -25 1z"/>
<path d="M1686 3692 c-3 -6 -2 -14 4 -17 8 -5 8 -11 0 -20 -7 -8 -7 -15 -1
-19 5 -4 13 -2 16 4 5 8 11 7 21 -1 18 -15 31 -4 16 14 -9 10 -9 16 0 25 16
16 2 28 -15 14 -10 -8 -17 -8 -24 -1 -7 7 -13 7 -17 1z"/>
<path d="M767 3543 c-4 -3 -2 -12 4 -20 8 -9 8 -17 1 -26 -9 -10 -4 -13 22
-13 30 0 33 3 32 28 -1 20 -5 27 -15 23 -7 -3 -19 -1 -26 5 -6 5 -15 7 -18 3z"/>
<path d="M923 3517 c1 -29 4 -34 27 -34 23 0 26 5 27 34 1 28 -1 32 -13 22
-11 -9 -17 -9 -28 0 -12 10 -14 6 -13 -22z"/>
<path d="M1116 3541 c-3 -5 -16 -7 -29 -3 -19 5 -20 3 -9 -10 9 -11 10 -18 2
-23 -20 -12 -10 -21 25 -21 35 0 45 9 25 21 -8 5 -8 11 0 20 7 8 7 15 1 19 -5
4 -12 2 -15 -3z"/>
<path d="M1227 3543 c-4 -3 -2 -12 4 -20 8 -9 8 -17 1 -26 -9 -10 -4 -13 21
-13 31 0 33 2 33 33 0 25 -3 30 -13 21 -9 -7 -17 -7 -26 1 -8 6 -17 8 -20 4z"/>
<path d="M1383 3517 c1 -31 3 -33 34 -34 25 -1 31 2 24 11 -6 7 -7 23 -4 37 6
21 5 23 -10 10 -13 -10 -20 -11 -31 -2 -12 10 -14 6 -13 -22z"/>
<path d="M1537 3544 c-4 -4 -2 -13 4 -20 7 -8 7 -14 -1 -19 -20 -12 -10 -21
25 -21 34 0 47 10 23 19 -10 3 -9 8 2 22 14 17 13 18 -12 12 -15 -4 -28 -3
-30 4 -2 5 -7 7 -11 3z"/>
<path d="M1687 3543 c-4 -3 -2 -12 4 -20 8 -9 8 -17 1 -26 -9 -10 -4 -13 23
-13 35 0 45 9 25 21 -8 5 -7 12 2 23 11 14 10 15 -6 9 -10 -4 -24 -3 -31 3 -6
5 -15 7 -18 3z"/>
<path d="M771 3374 c9 -11 9 -17 0 -28 -8 -9 -8 -16 -2 -20 5 -4 13 -2 16 4 4
6 14 8 23 6 13 -4 17 1 18 22 1 25 -3 28 -33 29 -28 1 -32 -1 -22 -13z"/>
<path d="M923 3358 c0 -22 4 -27 18 -23 9 3 20 1 24 -5 3 -6 11 -8 16 -4 6 4
6 11 -2 20 -9 11 -9 17 0 28 10 12 6 14 -22 13 -30 -1 -34 -4 -34 -29z"/>
<path d="M1070 3379 c0 -4 5 -11 10 -14 8 -5 7 -12 -2 -22 -11 -14 -10 -15 9
-9 12 4 24 2 28 -4 3 -6 11 -8 16 -4 6 3 5 12 -3 22 -10 12 -10 16 0 19 24 9
11 19 -23 19 -19 0 -35 -3 -35 -7z"/>
<path d="M1231 3374 c9 -11 9 -17 0 -28 -8 -9 -8 -16 -2 -20 5 -4 13 -2 16 4
4 6 15 8 24 5 14 -4 18 1 18 23 0 25 -4 28 -34 29 -28 1 -32 -1 -22 -13z"/>
<path d="M1383 3353 c-1 -28 1 -32 13 -22 10 8 18 9 27 0 18 -14 30 -2 16 16
-9 9 -8 17 0 27 10 12 6 14 -22 13 -31 -1 -33 -3 -34 -34z"/>
<path d="M1530 3379 c0 -4 5 -11 10 -14 8 -5 7 -12 -2 -23 -11 -14 -10 -15 6
-9 10 4 24 3 31 -3 9 -7 15 -7 19 -1 4 5 2 12 -4 16 -6 4 -7 12 -1 24 8 15 5
17 -25 17 -19 0 -34 -3 -34 -7z"/>
<path d="M1691 3374 c9 -11 9 -17 0 -28 -8 -9 -8 -16 -2 -20 5 -4 13 -2 16 4
4 6 15 8 24 5 14 -4 18 1 18 23 0 25 -4 28 -34 29 -28 1 -32 -1 -22 -13z"/>
<path d="M766 3232 c-3 -6 -2 -14 4 -17 8 -5 8 -11 0 -20 -7 -8 -7 -15 -1 -19
5 -4 13 -2 16 4 5 8 11 7 21 -1 18 -15 31 -4 16 14 -9 10 -9 16 0 25 16 16 2
28 -15 14 -10 -8 -17 -8 -24 -1 -7 7 -13 7 -17 1z"/>
<path d="M924 3205 c0 -34 10 -47 19 -22 3 9 7 9 18 0 13 -10 15 -7 16 23 1
30 -1 33 -15 22 -12 -10 -16 -10 -19 0 -9 24 -19 11 -19 -23z"/>
<path d="M1070 3231 c0 -6 5 -13 10 -16 8 -5 7 -11 -1 -21 -15 -19 -4 -30 15
-15 10 8 16 9 21 1 3 -6 11 -8 16 -4 7 4 6 10 0 18 -7 9 -7 16 1 24 16 16 2
28 -16 13 -10 -8 -16 -9 -21 -1 -8 13 -25 13 -25 1z"/>
<path d="M1231 3225 c2 -11 0 -25 -4 -32 -4 -6 -3 -14 2 -17 5 -4 13 -2 16 4
5 8 11 7 21 -1 18 -15 31 -4 16 14 -9 10 -9 16 0 25 16 16 2 28 -15 14 -10 -9
-17 -8 -26 1 -10 10 -12 8 -10 -8z"/>
<path d="M1384 3206 c0 -29 3 -33 16 -26 11 6 21 5 28 -2 7 -7 10 1 9 26 -1
26 -4 33 -13 25 -8 -7 -14 -7 -19 1 -12 20 -21 10 -21 -24z"/>
<path d="M1530 3231 c0 -6 5 -13 10 -16 8 -5 7 -11 -1 -21 -15 -18 -3 -32 13
-16 9 9 15 9 25 0 18 -15 29 -2 14 16 -8 10 -9 16 -1 21 6 3 8 11 4 16 -4 6
-11 6 -19 -1 -9 -8 -15 -8 -20 0 -8 13 -25 13 -25 1z"/>
<path d="M1686 3232 c-3 -6 -2 -14 4 -17 8 -5 8 -11 0 -20 -7 -8 -7 -15 -1
-19 5 -4 13 -2 16 4 5 8 11 7 21 -1 18 -15 31 -4 16 14 -9 10 -9 16 0 25 16
16 2 28 -15 14 -10 -8 -17 -8 -24 -1 -7 7 -13 7 -17 1z"/>
<path d="M781 2936 c-15 -16 -21 -33 -19 -52 l3 -29 32 46 c29 42 33 59 13 59
-4 0 -17 -11 -29 -24z"/>
<path d="M883 2938 c-11 -13 -43 -56 -72 -96 -39 -54 -51 -81 -49 -101 3 -26
11 -18 81 81 43 61 81 116 84 124 8 22 -21 16 -44 -8z"/>
<path d="M985 2943 c-8 -10 -62 -85 -120 -168 -76 -107 -105 -157 -105 -178 0
-28 3 -26 48 34 26 35 69 96 95 134 26 39 68 98 93 133 40 55 43 62 24 62 -11
0 -27 -8 -35 -17z"/>
<path d="M1104 2950 c-12 -5 -94 -112 -183 -239 -125 -178 -162 -237 -159
-257 3 -23 17 -7 98 107 52 74 134 190 182 258 48 68 88 128 88 132 0 10 1 10
-26 -1z"/>
<path d="M1161 2906 c-22 -29 -66 -91 -99 -137 -32 -46 -113 -162 -180 -257
-94 -133 -122 -180 -122 -204 0 -29 5 -25 67 63 287 407 395 562 399 574 4 9
0 15 -10 15 -8 0 -33 -24 -55 -54z"/>
<path d="M1275 2926 c-12 -17 -133 -188 -269 -380 -198 -280 -246 -355 -245
-380 l0 -31 17 24 c9 14 100 142 201 285 316 448 351 498 351 505 0 19 -34 4
-55 -23z"/>
<path d="M1388 2943 c-8 -10 -152 -211 -318 -448 -265 -375 -340 -495 -311
-495 4 0 81 105 171 233 90 127 239 338 330 467 92 129 170 241 174 248 11 19
-28 15 -46 -5z"/>
<path d="M1486 2934 c-14 -16 -70 -92 -124 -169 -54 -77 -138 -196 -187 -265
-48 -69 -109 -154 -134 -190 -25 -36 -89 -127 -143 -203 -54 -76 -98 -140 -98
-142 0 -3 9 -5 19 -5 14 0 68 68 187 238 92 130 193 273 224 317 269 379 302
427 291 438 -7 7 -18 1 -35 -19z"/>
<path d="M1533 2860 c-37 -52 -92 -131 -124 -175 -31 -44 -154 -219 -274 -390
-120 -170 -222 -316 -228 -322 -7 -10 -3 -13 14 -13 19 1 41 25 106 118 76
109 224 319 438 622 149 211 175 249 175 254 0 3 -9 4 -20 3 -13 -1 -43 -34
-87 -97z"/>
<path d="M1522 2703 c-99 -142 -234 -332 -298 -423 -247 -351 -228 -320 -202
-320 18 0 40 25 105 118 45 64 201 286 347 492 146 206 266 378 266 383 0 4
-8 7 -18 7 -12 0 -76 -83 -200 -257z"/>
<path d="M1957 2953 c-4 -3 -7 -18 -7 -33 0 -23 17 -39 118 -110 313 -222 858
-607 870 -614 9 -5 12 10 12 66 l0 73 -127 91 c-740 527 -751 534 -807 534
-29 0 -56 -3 -59 -7z"/>
<path d="M2315 2941 c24 -22 605 -432 623 -438 9 -4 12 14 12 68 l-1 74 -226
158 -227 157 -100 0 c-98 0 -100 0 -81 -19z"/>
<path d="M2730 2955 c0 -2 48 -38 108 -80 l107 -76 3 67 c2 37 1 73 -2 81 -4
10 -32 13 -111 13 -58 0 -105 -2 -105 -5z"/>
<path d="M3167 2953 c-4 -3 -7 -228 -7 -500 l0 -493 500 0 500 0 0 494 c0 441
-2 495 -16 500 -21 8 -969 8 -977 -1z m803 -498 l0 -315 -312 2 -313 3 -3 313
-2 312 315 0 315 0 0 -315z"/>
<path d="M4398 2911 c-21 -37 -28 -63 -28 -102 l0 -54 55 95 c30 52 55 98 55
103 0 4 -12 7 -27 7 -23 0 -33 -9 -55 -49z"/>
<path d="M4452 2816 c-76 -132 -83 -148 -80 -191 l3 -48 108 185 c59 102 107
188 107 191 0 4 -13 7 -28 7 -25 0 -35 -13 -110 -144z"/>
<path d="M4508 2721 c-130 -225 -138 -242 -138 -292 l0 -53 78 135 c290 498
265 449 226 449 -27 0 -38 -16 -166 -239z"/>
<path d="M4718 2888 c-309 -530 -348 -602 -348 -652 0 -27 2 -47 5 -44 5 5
410 702 436 751 8 14 5 17 -20 17 -27 0 -35 -8 -73 -72z"/>
<path d="M4920 2953 c0 -12 435 -763 443 -763 4 0 7 19 7 42 0 35 -21 77 -136
277 -75 130 -164 284 -198 343 -54 96 -64 108 -88 108 -16 0 -28 -3 -28 -7z"/>
<path d="M5030 2956 c0 -4 214 -376 291 -506 l44 -75 3 43 c4 51 9 39 -152
320 -120 209 -130 222 -157 222 -16 0 -29 -2 -29 -4z"/>
<path d="M5177 2892 c118 -209 179 -312 186 -312 4 0 7 19 7 41 0 34 -16 69
-86 190 -80 139 -88 149 -116 149 l-30 0 39 -68z"/>
<path d="M5250 2956 c0 -6 102 -181 111 -190 5 -6 9 9 9 38 0 36 -8 63 -31
102 -26 46 -35 54 -60 54 -16 0 -29 -2 -29 -4z"/>
<path d="M4713 2688 c-83 -145 -195 -338 -248 -430 -90 -156 -96 -170 -93
-215 l3 -48 176 305 c97 168 207 358 245 423 60 104 69 117 81 102 6 -10 117
-199 245 -421 128 -222 236 -404 240 -404 5 0 8 18 8 41 0 35 -35 101 -246
467 -136 235 -249 430 -253 435 -4 4 -75 -111 -158 -255z"/>
<path d="M1703 2817 c-23 -34 -167 -240 -321 -457 -243 -342 -277 -395 -259
-398 14 -3 27 4 37 19 8 13 53 77 100 144 461 650 491 695 488 725 -3 29 -4
28 -45 -33z"/>
<path d="M4637 2367 c-125 -217 -227 -397 -227 -400 0 -4 12 -7 28 -7 25 0 41
24 227 346 181 315 200 345 213 328 7 -11 96 -163 198 -339 101 -175 188 -323
193 -328 5 -5 20 -7 34 -5 24 3 24 5 -50 133 -42 72 -87 150 -101 175 -74 131
-275 476 -281 483 -4 4 -109 -170 -234 -386z"/>
<path d="M1675 2634 c-101 -144 -395 -560 -439 -621 -37 -52 -37 -53 -14 -53
20 0 59 50 233 298 302 428 297 419 293 449 -3 23 -12 14 -73 -73z"/>
<path d="M1950 2661 c0 -83 -40 -46 365 -331 160 -112 343 -241 407 -287 112
-80 118 -83 172 -83 l56 0 0 38 -1 37 -341 240 c-187 132 -409 288 -493 348
-84 59 -156 107 -159 107 -3 0 -6 -31 -6 -69z"/>
<path d="M1523 2275 c-187 -266 -218 -315 -200 -315 18 0 46 33 127 148 57 81
148 209 203 285 79 112 98 144 95 168 -3 26 -30 -9 -225 -286z"/>
<path d="M4692 2270 c-94 -164 -172 -301 -172 -304 0 -3 12 -6 28 -6 25 0 38
19 172 250 79 137 147 247 151 242 4 -4 67 -110 139 -237 73 -126 138 -236
145 -243 7 -8 24 -12 37 -10 24 3 18 15 -146 300 -94 163 -174 299 -177 302
-2 3 -82 -130 -177 -294z"/>
<path d="M1580 2213 c-91 -129 -166 -238 -168 -244 -2 -5 5 -9 15 -9 14 0 65
64 172 216 121 172 152 221 149 243 -3 24 -26 -4 -168 -206z"/>
<path d="M1950 2352 l0 -69 229 -162 230 -162 102 3 103 3 -322 228 c-178 125
-327 227 -332 227 -6 0 -10 -31 -10 -68z"/>
<path d="M4746 2168 c-116 -202 -116 -203 -89 -206 33 -4 31 -6 128 165 42 73
80 131 84 129 4 -3 45 -71 91 -151 77 -132 87 -145 112 -145 15 0 28 3 28 7 0
3 -33 63 -74 132 -40 69 -92 159 -115 199 -23 39 -43 72 -45 72 -2 0 -56 -91
-120 -202z"/>
<path d="M1628 2138 c-65 -92 -118 -170 -118 -173 0 -3 9 -5 19 -5 13 0 44 36
98 113 43 61 89 126 102 143 14 20 21 41 19 60 -3 26 -15 12 -120 -138z"/>
<path d="M4829 2117 c-20 -34 -48 -83 -63 -109 l-28 -48 31 0 c27 0 35 7 62
55 17 30 33 55 35 55 2 0 18 -25 35 -55 26 -47 35 -55 60 -55 16 0 29 2 29 5
0 6 -110 198 -119 207 -3 4 -22 -21 -42 -55z"/>
<path d="M1680 2070 c-78 -114 -78 -113 -50 -108 33 5 123 136 118 174 -3 26
-8 21 -68 -66z"/>
<path d="M1950 2052 c0 -47 4 -73 14 -81 9 -8 49 -11 116 -9 l102 3 -102 73
c-57 41 -109 76 -116 79 -11 4 -14 -10 -14 -65z"/>
<path d="M1728 1995 c-23 -30 -22 -35 2 -35 16 0 20 7 20 30 0 36 0 36 -22 5z"/>
<path d="M1147 1744 c-32 -7 -83 -26 -114 -40 -65 -31 -168 -128 -208 -198
-38 -65 -65 -167 -65 -244 0 -243 177 -452 417 -494 242 -41 487 113 559 352
24 79 23 199 -4 285 -76 249 -336 400 -585 339z m239 -198 c118 -54 176 -141
182 -273 4 -71 1 -88 -23 -142 -53 -118 -156 -185 -285 -185 -127 0 -221 55
-280 166 -30 56 -34 72 -35 143 0 66 5 90 26 135 77 162 255 229 415 156z"/>
<path d="M4370 1585 l0 -175 160 0 160 0 0 -160 0 -160 165 0 165 0 0 -165 0
-165 170 0 170 0 0 500 0 500 -495 0 -495 0 0 -175z"/>
<path d="M1970 1740 c0 -5 5 -10 10 -10 6 0 10 5 10 10 0 6 -4 10 -10 10 -5 0
-10 -4 -10 -10z"/>
<path d="M2075 1740 c3 -5 8 -10 11 -10 2 0 4 5 4 10 0 6 -5 10 -11 10 -5 0
-7 -4 -4 -10z"/>
<path d="M2180 1740 c0 -5 5 -10 10 -10 6 0 10 5 10 10 0 6 -4 10 -10 10 -5 0
-10 -4 -10 -10z"/>
<path d="M2285 1740 c4 -6 11 -8 16 -5 14 9 11 15 -7 15 -8 0 -12 -5 -9 -10z"/>
<path d="M2390 1740 c0 -5 5 -10 10 -10 6 0 10 5 10 10 0 6 -4 10 -10 10 -5 0
-10 -4 -10 -10z"/>
<path d="M2495 1740 c4 -6 11 -8 16 -5 14 9 11 15 -7 15 -8 0 -12 -5 -9 -10z"/>
<path d="M2600 1740 c0 -5 5 -10 10 -10 6 0 10 5 10 10 0 6 -4 10 -10 10 -5 0
-10 -4 -10 -10z"/>
<path d="M2705 1740 c4 -6 11 -8 16 -5 14 9 11 15 -7 15 -8 0 -12 -5 -9 -10z"/>
<path d="M2810 1740 c0 -5 5 -10 10 -10 6 0 10 5 10 10 0 6 -4 10 -10 10 -5 0
-10 -4 -10 -10z"/>
<path d="M2915 1740 c3 -5 10 -10 16 -10 5 0 9 5 9 10 0 6 -7 10 -16 10 -8 0
-12 -4 -9 -10z"/>
<path d="M3252 1658 l-92 -93 152 -152 153 -153 -148 -148 c-81 -81 -147 -152
-147 -157 0 -5 42 -51 92 -102 l93 -93 152 152 153 153 153 -153 152 -152 94
94 c83 83 93 97 81 111 -7 9 -76 78 -152 153 l-138 137 150 150 c83 83 150
155 150 160 0 13 -172 185 -184 185 -5 0 -77 -67 -160 -150 l-151 -149 -149
149 c-83 83 -152 150 -156 150 -3 0 -47 -42 -98 -92z"/>
<path d="M1970 1634 c0 -8 5 -12 10 -9 6 3 10 10 10 16 0 5 -4 9 -10 9 -5 0
-10 -7 -10 -16z"/>
<path d="M2075 1641 c-3 -5 -1 -12 5 -16 5 -3 10 1 10 9 0 18 -6 21 -15 7z"/>
<path d="M2180 1634 c0 -8 5 -12 10 -9 6 3 10 10 10 16 0 5 -4 9 -10 9 -5 0
-10 -7 -10 -16z"/>
<path d="M2286 1641 c-4 -5 -2 -12 3 -15 5 -4 12 -2 15 3 4 5 2 12 -3 15 -5 4
-12 2 -15 -3z"/>
<path d="M2390 1640 c0 -5 5 -10 10 -10 6 0 10 5 10 10 0 6 -4 10 -10 10 -5 0
-10 -4 -10 -10z"/>
<path d="M2496 1641 c-4 -5 -2 -12 3 -15 5 -4 12 -2 15 3 4 5 2 12 -3 15 -5 4
-12 2 -15 -3z"/>
<path d="M2600 1634 c0 -8 5 -12 10 -9 6 3 10 10 10 16 0 5 -4 9 -10 9 -5 0
-10 -7 -10 -16z"/>
<path d="M2710 1634 c0 -8 5 -12 10 -9 6 4 8 11 5 16 -9 14 -15 11 -15 -7z"/>
<path d="M2810 1641 c0 -6 5 -13 10 -16 6 -3 10 1 10 9 0 9 -4 16 -10 16 -5 0
-10 -4 -10 -9z"/>
<path d="M2916 1641 c-4 -5 -2 -12 3 -15 5 -4 12 -2 15 3 4 5 2 12 -3 15 -5 4
-12 2 -15 -3z"/>
<path d="M1970 1530 c0 -5 5 -10 10 -10 6 0 10 5 10 10 0 6 -4 10 -10 10 -5 0
-10 -4 -10 -10z"/>
<path d="M2070 1530 c0 -5 5 -10 10 -10 6 0 10 5 10 10 0 6 -4 10 -10 10 -5 0
-10 -4 -10 -10z"/>
<path d="M2180 1530 c0 -5 5 -10 10 -10 6 0 10 5 10 10 0 6 -4 10 -10 10 -5 0
-10 -4 -10 -10z"/>
<path d="M2280 1530 c0 -5 7 -10 16 -10 8 0 12 5 9 10 -3 6 -10 10 -16 10 -5
0 -9 -4 -9 -10z"/>
<path d="M2390 1530 c0 -5 5 -10 10 -10 6 0 10 5 10 10 0 6 -4 10 -10 10 -5 0
-10 -4 -10 -10z"/>
<path d="M2490 1530 c0 -5 7 -10 16 -10 8 0 12 5 9 10 -3 6 -10 10 -16 10 -5
0 -9 -4 -9 -10z"/>
<path d="M2600 1530 c0 -5 5 -10 10 -10 6 0 10 5 10 10 0 6 -4 10 -10 10 -5 0
-10 -4 -10 -10z"/>
<path d="M2705 1530 c-3 -5 1 -10 9 -10 9 0 16 5 16 10 0 6 -4 10 -9 10 -6 0
-13 -4 -16 -10z"/>
<path d="M2810 1530 c0 -5 5 -10 10 -10 6 0 10 5 10 10 0 6 -4 10 -10 10 -5 0
-10 -4 -10 -10z"/>
<path d="M2915 1530 c-3 -5 1 -10 9 -10 9 0 16 5 16 10 0 6 -4 10 -9 10 -6 0
-13 -4 -16 -10z"/>
<path d="M1970 1420 c0 -5 5 -10 10 -10 6 0 10 5 10 10 0 6 -4 10 -10 10 -5 0
-10 -4 -10 -10z"/>
<path d="M2070 1420 c0 -5 5 -10 10 -10 6 0 10 5 10 10 0 6 -4 10 -10 10 -5 0
-10 -4 -10 -10z"/>
<path d="M2180 1420 c0 -5 5 -10 10 -10 6 0 10 5 10 10 0 6 -4 10 -10 10 -5 0
-10 -4 -10 -10z"/>
<path d="M2280 1420 c0 -5 7 -10 15 -10 8 0 15 5 15 10 0 6 -7 10 -15 10 -8 0
-15 -4 -15 -10z"/>
<path d="M2390 1420 c0 -5 5 -10 10 -10 6 0 10 5 10 10 0 6 -4 10 -10 10 -5 0
-10 -4 -10 -10z"/>
<path d="M2490 1420 c0 -5 7 -10 15 -10 8 0 15 5 15 10 0 6 -7 10 -15 10 -8 0
-15 -4 -15 -10z"/>
<path d="M2600 1420 c0 -5 5 -10 10 -10 6 0 10 5 10 10 0 6 -4 10 -10 10 -5 0
-10 -4 -10 -10z"/>
<path d="M2710 1420 c0 -5 5 -10 10 -10 6 0 10 5 10 10 0 6 -4 10 -10 10 -5 0
-10 -4 -10 -10z"/>
<path d="M2810 1420 c0 -5 5 -10 10 -10 6 0 10 5 10 10 0 6 -4 10 -10 10 -5 0
-10 -4 -10 -10z"/>
<path d="M2910 1420 c0 -5 7 -10 15 -10 8 0 15 5 15 10 0 6 -7 10 -15 10 -8 0
-15 -4 -15 -10z"/>
<path d="M1970 1316 c0 -9 5 -16 10 -16 6 0 10 4 10 9 0 6 -4 13 -10 16 -5 3
-10 -1 -10 -9z"/>
<path d="M2075 1321 c-3 -5 -1 -12 5 -16 5 -3 10 1 10 9 0 18 -6 21 -15 7z"/>
<path d="M2286 1321 c-4 -5 -2 -12 3 -15 5 -4 12 -2 15 3 4 5 2 12 -3 15 -5 4
-12 2 -15 -3z"/>
<path d="M2600 1316 c0 -9 5 -16 10 -16 6 0 10 4 10 9 0 6 -4 13 -10 16 -5 3
-10 -1 -10 -9z"/>
<path d="M2180 1310 c0 -5 5 -10 10 -10 6 0 10 5 10 10 0 6 -4 10 -10 10 -5 0
-10 -4 -10 -10z"/>
<path d="M2390 1310 c0 -5 5 -10 10 -10 6 0 10 5 10 10 0 6 -4 10 -10 10 -5 0
-10 -4 -10 -10z"/>
<path d="M2495 1310 c4 -6 11 -8 16 -5 14 9 11 15 -7 15 -8 0 -12 -5 -9 -10z"/>
<path d="M2705 1310 c4 -6 11 -8 16 -5 14 9 11 15 -7 15 -8 0 -12 -5 -9 -10z"/>
<path d="M2810 1310 c0 -5 5 -10 10 -10 6 0 10 5 10 10 0 6 -4 10 -10 10 -5 0
-10 -4 -10 -10z"/>
<path d="M2915 1310 c3 -5 10 -10 16 -10 5 0 9 5 9 10 0 6 -7 10 -16 10 -8 0
-12 -4 -9 -10z"/>
<path d="M1970 1204 c0 -8 5 -12 10 -9 6 4 8 11 5 16 -9 14 -15 11 -15 -7z"/>
<path d="M2075 1211 c-3 -5 -1 -12 5 -16 5 -3 10 1 10 9 0 18 -6 21 -15 7z"/>
<path d="M2180 1205 c0 -8 5 -15 10 -15 6 0 10 7 10 15 0 8 -4 15 -10 15 -5 0
-10 -7 -10 -15z"/>
<path d="M2286 1211 c-4 -5 -2 -12 3 -15 5 -4 12 -2 15 3 4 5 2 12 -3 15 -5 4
-12 2 -15 -3z"/>
<path d="M2390 1205 c0 -8 5 -15 10 -15 6 0 10 7 10 15 0 8 -4 15 -10 15 -5 0
-10 -7 -10 -15z"/>
<path d="M2496 1211 c-4 -5 -2 -12 3 -15 5 -4 12 -2 15 3 4 5 2 12 -3 15 -5 4
-12 2 -15 -3z"/>
<path d="M2600 1205 c0 -8 5 -15 10 -15 6 0 10 7 10 15 0 8 -4 15 -10 15 -5 0
-10 -7 -10 -15z"/>
<path d="M2706 1211 c-4 -5 -2 -12 3 -15 5 -4 12 -2 15 3 4 5 2 12 -3 15 -5 4
-12 2 -15 -3z"/>
<path d="M2810 1211 c0 -6 5 -13 10 -16 6 -3 10 1 10 9 0 9 -4 16 -10 16 -5 0
-10 -4 -10 -9z"/>
<path d="M2916 1211 c-4 -5 -2 -12 3 -15 5 -4 12 -2 15 3 4 5 2 12 -3 15 -5 4
-12 2 -15 -3z"/>
<path d="M1970 1100 c0 -5 5 -10 10 -10 6 0 10 5 10 10 0 6 -4 10 -10 10 -5 0
-10 -4 -10 -10z"/>
<path d="M2070 1100 c0 -5 5 -10 10 -10 6 0 10 5 10 10 0 6 -4 10 -10 10 -5 0
-10 -4 -10 -10z"/>
<path d="M2180 1100 c0 -5 5 -10 10 -10 6 0 10 5 10 10 0 6 -4 10 -10 10 -5 0
-10 -4 -10 -10z"/>
<path d="M2285 1100 c-3 -5 1 -10 9 -10 9 0 16 5 16 10 0 6 -4 10 -9 10 -6 0
-13 -4 -16 -10z"/>
<path d="M2390 1100 c0 -5 5 -10 10 -10 6 0 10 5 10 10 0 6 -4 10 -10 10 -5 0
-10 -4 -10 -10z"/>
<path d="M2490 1100 c0 -5 7 -10 16 -10 8 0 12 5 9 10 -3 6 -10 10 -16 10 -5
0 -9 -4 -9 -10z"/>
<path d="M2600 1100 c0 -5 5 -10 10 -10 6 0 10 5 10 10 0 6 -4 10 -10 10 -5 0
-10 -4 -10 -10z"/>
<path d="M2710 1100 c0 -5 5 -10 10 -10 6 0 10 5 10 10 0 6 -4 10 -10 10 -5 0
-10 -4 -10 -10z"/>
<path d="M2810 1100 c0 -5 5 -10 10 -10 6 0 10 5 10 10 0 6 -4 10 -10 10 -5 0
-10 -4 -10 -10z"/>
<path d="M2910 1100 c0 -5 7 -10 15 -10 8 0 15 5 15 10 0 6 -7 10 -15 10 -8 0
-15 -4 -15 -10z"/>
<path d="M1970 990 c0 -5 5 -10 10 -10 6 0 10 5 10 10 0 6 -4 10 -10 10 -5 0
-10 -4 -10 -10z"/>
<path d="M2070 990 c0 -5 5 -10 10 -10 6 0 10 5 10 10 0 6 -4 10 -10 10 -5 0
-10 -4 -10 -10z"/>
<path d="M2180 990 c0 -5 5 -10 10 -10 6 0 10 5 10 10 0 6 -4 10 -10 10 -5 0
-10 -4 -10 -10z"/>
<path d="M2280 990 c0 -5 7 -10 15 -10 8 0 15 5 15 10 0 6 -7 10 -15 10 -8 0
-15 -4 -15 -10z"/>
<path d="M2390 990 c0 -5 5 -10 10 -10 6 0 10 5 10 10 0 6 -4 10 -10 10 -5 0
-10 -4 -10 -10z"/>
<path d="M2490 990 c0 -5 7 -10 15 -10 8 0 15 5 15 10 0 6 -7 10 -15 10 -8 0
-15 -4 -15 -10z"/>
<path d="M2600 990 c0 -5 5 -10 10 -10 6 0 10 5 10 10 0 6 -4 10 -10 10 -5 0
-10 -4 -10 -10z"/>
<path d="M2705 990 c3 -5 10 -10 16 -10 5 0 9 5 9 10 0 6 -7 10 -16 10 -8 0
-12 -4 -9 -10z"/>
<path d="M2810 990 c0 -5 5 -10 10 -10 6 0 10 5 10 10 0 6 -4 10 -10 10 -5 0
-10 -4 -10 -10z"/>
<path d="M2910 990 c0 -5 7 -10 15 -10 8 0 15 5 15 10 0 6 -7 10 -15 10 -8 0
-15 -4 -15 -10z"/>
<path d="M1970 880 c0 -5 5 -10 10 -10 6 0 10 5 10 10 0 6 -4 10 -10 10 -5 0
-10 -4 -10 -10z"/>
<path d="M2070 880 c0 -5 5 -10 10 -10 6 0 10 5 10 10 0 6 -4 10 -10 10 -5 0
-10 -4 -10 -10z"/>
<path d="M2180 880 c0 -5 5 -10 10 -10 6 0 10 5 10 10 0 6 -4 10 -10 10 -5 0
-10 -4 -10 -10z"/>
<path d="M2285 880 c4 -6 11 -8 16 -5 14 9 11 15 -7 15 -8 0 -12 -5 -9 -10z"/>
<path d="M2390 880 c0 -5 5 -10 10 -10 6 0 10 5 10 10 0 6 -4 10 -10 10 -5 0
-10 -4 -10 -10z"/>
<path d="M2495 880 c4 -6 11 -8 16 -5 14 9 11 15 -7 15 -8 0 -12 -5 -9 -10z"/>
<path d="M2600 880 c0 -5 5 -10 10 -10 6 0 10 5 10 10 0 6 -4 10 -10 10 -5 0
-10 -4 -10 -10z"/>
<path d="M2705 880 c3 -5 10 -10 16 -10 5 0 9 5 9 10 0 6 -7 10 -16 10 -8 0
-12 -4 -9 -10z"/>
<path d="M2810 880 c0 -5 5 -10 10 -10 6 0 10 5 10 10 0 6 -4 10 -10 10 -5 0
-10 -4 -10 -10z"/>
<path d="M2915 880 c3 -5 10 -10 16 -10 5 0 9 5 9 10 0 6 -7 10 -16 10 -8 0
-12 -4 -9 -10z"/>
<path d="M1970 775 c0 -8 5 -15 10 -15 6 0 10 7 10 15 0 8 -4 15 -10 15 -5 0
-10 -7 -10 -15z"/>
<path d="M2075 781 c-3 -5 -1 -12 5 -16 5 -3 10 1 10 9 0 18 -6 21 -15 7z"/>
<path d="M2180 775 c0 -8 5 -15 10 -15 6 0 10 7 10 15 0 8 -4 15 -10 15 -5 0
-10 -7 -10 -15z"/>
<path d="M2286 781 c-4 -5 -2 -12 3 -15 5 -4 12 -2 15 3 4 5 2 12 -3 15 -5 4
-12 2 -15 -3z"/>
<path d="M2390 775 c0 -8 5 -15 10 -15 6 0 10 7 10 15 0 8 -4 15 -10 15 -5 0
-10 -7 -10 -15z"/>
<path d="M2496 781 c-4 -5 -2 -12 3 -15 5 -4 12 -2 15 3 4 5 2 12 -3 15 -5 4
-12 2 -15 -3z"/>
<path d="M2600 775 c0 -8 5 -15 10 -15 6 0 10 7 10 15 0 8 -4 15 -10 15 -5 0
-10 -7 -10 -15z"/>
<path d="M2706 781 c-4 -5 -2 -12 3 -15 5 -4 12 -2 15 3 4 5 2 12 -3 15 -5 4
-12 2 -15 -3z"/>
<path d="M2810 775 c0 -8 5 -15 10 -15 6 0 10 7 10 15 0 8 -4 15 -10 15 -5 0
-10 -7 -10 -15z"/>
<path d="M2916 781 c-4 -5 -2 -12 3 -15 5 -4 12 -2 15 3 4 5 2 12 -3 15 -5 4
-12 2 -15 -3z"/>
</g>
</svg>
